# xmcd
#
# Track frame offsets: 
#        183
#        24998
#        46690
#        67055
#
# Disc length: 1189 seconds
#
# Revision: 1
# Processed by: cddbd v1.5.2PL0 Copyright (c) Steve Scherf et al.
# Submitted via: ExactAudioCopy v0.99pb4
#
DISCID=2a04a304
DTITLE=Atlantic Starr - Compact Hits
DYEAR=1988
DGENRE=Pop
TTITLE0=Secret Lovers
TTITLE1=Circles
TTITLE2=Touch A Four Leaf Clover
TTITLE3=Silver Shadow
EXTD=
EXTT0=
EXTT1=
EXTT2=
EXTT3=
PLAYORDER=
